<svg width="169" height="31" viewBox="0 0 169 31" fill="none" xmlns="http://www.w3.org/2000/svg">
<path d="M17.3672 1.21094V6.53906H6.92578V12.5977C7.41276 12.3971 8 12.2396 8.6875 12.125C9.375 11.9818 10.1055 11.9102 10.8789 11.9102C12.3112 11.9102 13.6432 12.2682 14.875 12.9844C16.1354 13.6719 17.1523 14.6458 17.9258 15.9062C18.6992 17.138 19.0859 18.599 19.0859 20.2891C19.0859 22.5234 18.5846 24.4141 17.582 25.9609C16.5794 27.4792 15.2474 28.6393 13.5859 29.4414C11.9245 30.2435 10.0768 30.6445 8.04297 30.6445C6.1237 30.6445 4.49089 30.3438 3.14453 29.7422C1.79818 29.112 0.752604 28.4961 0.0078125 27.8945V22.5664C1.03906 23.1966 2.1276 23.8268 3.27344 24.457C4.41927 25.0586 5.73698 25.3594 7.22656 25.3594C8.94531 25.3594 10.3633 25.0013 11.4805 24.2852C12.5977 23.5404 13.1562 22.4375 13.1562 20.9766C13.1562 19.6589 12.5833 18.599 11.4375 17.7969C10.3203 16.9948 8.91667 16.5938 7.22656 16.5938C6.13802 16.5938 5.13542 16.7083 4.21875 16.9375C3.33073 17.1667 2.48568 17.4102 1.68359 17.668V1.21094H17.3672ZM34.125 0.566406C36.5885 0.566406 38.6367 1.25391 40.2695 2.62891C41.931 3.97526 43.1628 5.79427 43.9648 8.08594C44.7956 10.349 45.2109 12.8555 45.2109 15.6055C45.2109 18.3555 44.7956 20.8763 43.9648 23.168C43.1628 25.431 41.931 27.25 40.2695 28.625C38.6367 29.9714 36.5885 30.6445 34.125 30.6445C31.6615 30.6445 29.599 29.9714 27.9375 28.625C26.3047 27.25 25.0729 25.431 24.2422 23.168C23.4401 20.8763 23.0391 18.3555 23.0391 15.6055C23.0391 12.8555 23.4401 10.349 24.2422 8.08594C25.0729 5.79427 26.3047 3.97526 27.9375 2.62891C29.599 1.25391 31.6615 0.566406 34.125 0.566406ZM34.125 5.76562C32.9792 5.76562 32.0195 6.20964 31.2461 7.09766C30.5013 7.95703 29.9427 9.13151 29.5703 10.6211C29.1979 12.082 29.0117 13.7435 29.0117 15.6055C29.0117 17.4674 29.1979 19.1432 29.5703 20.6328C29.9427 22.0938 30.5013 23.2539 31.2461 24.1133C32.0195 24.9727 32.9792 25.4023 34.125 25.4023C35.2708 25.4023 36.2161 24.9727 36.9609 24.1133C37.7344 23.2539 38.3073 22.0938 38.6797 20.6328C39.0807 19.1432 39.2812 17.4674 39.2812 15.6055C39.2812 13.7435 39.0807 12.082 38.6797 10.6211C38.3073 9.13151 37.7344 7.95703 36.9609 7.09766C36.2161 6.20964 35.2708 5.76562 34.125 5.76562ZM56.6836 1.21094V14.1016L67.6406 1.21094H75.2031L63.9023 13.8008L76.4922 30H68.6719L59.8203 18.3555L56.6836 21.8789V30H50.7109V1.21094H56.6836Z" fill="#171100"/>
<path d="M95.3913 30.126C94.5633 30.126 93.8193 29.982 93.1593 29.694C92.5113 29.394 92.0013 28.986 91.6293 28.47C91.2573 27.942 91.0653 27.336 91.0533 26.652H92.7993C92.8593 27.24 93.0993 27.738 93.5193 28.146C93.9513 28.542 94.5753 28.74 95.3913 28.74C96.1713 28.74 96.7833 28.548 97.2273 28.164C97.6833 27.768 97.9113 27.264 97.9113 26.652C97.9113 26.172 97.7793 25.782 97.5153 25.482C97.2513 25.182 96.9213 24.954 96.5253 24.798C96.1293 24.642 95.5953 24.474 94.9233 24.294C94.0953 24.078 93.4293 23.862 92.9253 23.646C92.4333 23.43 92.0073 23.094 91.6473 22.638C91.2993 22.17 91.1253 21.546 91.1253 20.766C91.1253 20.082 91.2993 19.476 91.6473 18.948C91.9953 18.42 92.4813 18.012 93.1053 17.724C93.7413 17.436 94.4673 17.292 95.2833 17.292C96.4593 17.292 97.4193 17.586 98.1633 18.174C98.9193 18.762 99.3453 19.542 99.4413 20.514H97.6413C97.5813 20.034 97.3293 19.614 96.8853 19.254C96.4413 18.882 95.8533 18.696 95.1213 18.696C94.4373 18.696 93.8793 18.876 93.4473 19.236C93.0153 19.584 92.7993 20.076 92.7993 20.712C92.7993 21.168 92.9253 21.54 93.1773 21.828C93.4413 22.116 93.7593 22.338 94.1313 22.494C94.5153 22.638 95.0493 22.806 95.7333 22.998C96.5613 23.226 97.2273 23.454 97.7313 23.682C98.2353 23.898 98.6673 24.24 99.0273 24.708C99.3873 25.164 99.5673 25.788 99.5673 26.58C99.5673 27.192 99.4053 27.768 99.0813 28.308C98.7573 28.848 98.2773 29.286 97.6413 29.622C97.0053 29.958 96.2553 30.126 95.3913 30.126ZM103.976 21.486V27.3C103.976 27.78 104.078 28.122 104.282 28.326C104.486 28.518 104.84 28.614 105.344 28.614H106.55V30H105.074C104.162 30 103.478 29.79 103.022 29.37C102.566 28.95 102.338 28.26 102.338 27.3V21.486H101.06V20.136H102.338V17.652H103.976V20.136H106.55V21.486H103.976ZM117.282 20.136V30H115.644V28.542C115.332 29.046 114.894 29.442 114.33 29.73C113.778 30.006 113.166 30.144 112.494 30.144C111.726 30.144 111.036 29.988 110.424 29.676C109.812 29.352 109.326 28.872 108.966 28.236C108.618 27.6 108.444 26.826 108.444 25.914V20.136H110.064V25.698C110.064 26.67 110.31 27.42 110.802 27.948C111.294 28.464 111.966 28.722 112.818 28.722C113.694 28.722 114.384 28.452 114.888 27.912C115.392 27.372 115.644 26.586 115.644 25.554V20.136H117.282ZM119.436 25.032C119.436 24.024 119.64 23.142 120.048 22.386C120.456 21.618 121.014 21.024 121.722 20.604C122.442 20.184 123.246 19.974 124.134 19.974C124.902 19.974 125.616 20.154 126.276 20.514C126.936 20.862 127.44 21.324 127.788 21.9V16.68H129.444V30H127.788V28.146C127.464 28.734 126.984 29.22 126.348 29.604C125.712 29.976 124.968 30.162 124.116 30.162C123.24 30.162 122.442 29.946 121.722 29.514C121.014 29.082 120.456 28.476 120.048 27.696C119.64 26.916 119.436 26.028 119.436 25.032ZM127.788 25.05C127.788 24.306 127.638 23.658 127.338 23.106C127.038 22.554 126.63 22.134 126.114 21.846C125.61 21.546 125.052 21.396 124.44 21.396C123.828 21.396 123.27 21.54 122.766 21.828C122.262 22.116 121.86 22.536 121.56 23.088C121.26 23.64 121.11 24.288 121.11 25.032C121.11 25.788 121.26 26.448 121.56 27.012C121.86 27.564 122.262 27.99 122.766 28.29C123.27 28.578 123.828 28.722 124.44 28.722C125.052 28.722 125.61 28.578 126.114 28.29C126.63 27.99 127.038 27.564 127.338 27.012C127.638 26.448 127.788 25.794 127.788 25.05ZM141.212 24.69C141.212 25.002 141.194 25.332 141.158 25.68H133.274C133.334 26.652 133.664 27.414 134.264 27.966C134.876 28.506 135.614 28.776 136.478 28.776C137.186 28.776 137.774 28.614 138.242 28.29C138.722 27.954 139.058 27.51 139.25 26.958H141.014C140.75 27.906 140.222 28.68 139.43 29.28C138.638 29.868 137.654 30.162 136.478 30.162C135.542 30.162 134.702 29.952 133.958 29.532C133.226 29.112 132.65 28.518 132.23 27.75C131.81 26.97 131.6 26.07 131.6 25.05C131.6 24.03 131.804 23.136 132.212 22.368C132.62 21.6 133.19 21.012 133.922 20.604C134.666 20.184 135.518 19.974 136.478 19.974C137.414 19.974 138.242 20.178 138.962 20.586C139.682 20.994 140.234 21.558 140.618 22.278C141.014 22.986 141.212 23.79 141.212 24.69ZM139.52 24.348C139.52 23.724 139.382 23.19 139.106 22.746C138.83 22.29 138.452 21.948 137.972 21.72C137.504 21.48 136.982 21.36 136.406 21.36C135.578 21.36 134.87 21.624 134.282 22.152C133.706 22.68 133.376 23.412 133.292 24.348H139.52ZM148.18 19.956C149.38 19.956 150.352 20.322 151.096 21.054C151.84 21.774 152.212 22.818 152.212 24.186V30H150.592V24.42C150.592 23.436 150.346 22.686 149.854 22.17C149.362 21.642 148.69 21.378 147.838 21.378C146.974 21.378 146.284 21.648 145.768 22.188C145.264 22.728 145.012 23.514 145.012 24.546V30H143.374V20.136H145.012V21.54C145.336 21.036 145.774 20.646 146.326 20.37C146.89 20.094 147.508 19.956 148.18 19.956ZM156.886 21.486V27.3C156.886 27.78 156.988 28.122 157.192 28.326C157.396 28.518 157.75 28.614 158.254 28.614H159.46V30H157.984C157.072 30 156.388 29.79 155.932 29.37C155.476 28.95 155.248 28.26 155.248 27.3V21.486H153.97V20.136H155.248V17.652H156.886V20.136H159.46V21.486H156.886ZM164.937 30.162C164.181 30.162 163.503 30.036 162.903 29.784C162.303 29.52 161.829 29.16 161.481 28.704C161.133 28.236 160.941 27.702 160.905 27.102H162.597C162.645 27.594 162.873 27.996 163.281 28.308C163.701 28.62 164.247 28.776 164.919 28.776C165.543 28.776 166.035 28.638 166.395 28.362C166.755 28.086 166.935 27.738 166.935 27.318C166.935 26.886 166.743 26.568 166.359 26.364C165.975 26.148 165.381 25.938 164.577 25.734C163.845 25.542 163.245 25.35 162.777 25.158C162.321 24.954 161.925 24.66 161.589 24.276C161.265 23.88 161.103 23.364 161.103 22.728C161.103 22.224 161.253 21.762 161.553 21.342C161.853 20.922 162.279 20.592 162.831 20.352C163.383 20.1 164.013 19.974 164.721 19.974C165.813 19.974 166.695 20.25 167.367 20.802C168.039 21.354 168.399 22.11 168.447 23.07H166.809C166.773 22.554 166.563 22.14 166.179 21.828C165.807 21.516 165.303 21.36 164.667 21.36C164.079 21.36 163.611 21.486 163.263 21.738C162.915 21.99 162.741 22.32 162.741 22.728C162.741 23.052 162.843 23.322 163.047 23.538C163.263 23.742 163.527 23.91 163.839 24.042C164.163 24.162 164.607 24.3 165.171 24.456C165.879 24.648 166.455 24.84 166.899 25.032C167.343 25.212 167.721 25.488 168.033 25.86C168.357 26.232 168.525 26.718 168.537 27.318C168.537 27.858 168.387 28.344 168.087 28.776C167.787 29.208 167.361 29.55 166.809 29.802C166.269 30.042 165.645 30.162 164.937 30.162Z" fill="#5F5B53"/>
</svg>
