<svg width="157" height="31" viewBox="0 0 157 31" fill="none" xmlns="http://www.w3.org/2000/svg">
<path d="M21.0742 1.21094V3.66016C19.5273 6.23828 18.138 8.61589 16.9062 10.793C15.6745 12.9701 14.6146 15.0755 13.7266 17.1094C12.8672 19.1146 12.194 21.1628 11.707 23.2539C11.2487 25.3451 11.0195 27.5938 11.0195 30H4.14453C4.14453 27.1641 4.61719 24.4284 5.5625 21.793C6.50781 19.1289 7.69661 16.5365 9.12891 14.0156C10.5612 11.4661 12.0078 8.97396 13.4688 6.53906H0.664062V1.21094H21.0742ZM35.125 0.566406C37.5885 0.566406 39.6367 1.25391 41.2695 2.62891C42.931 3.97526 44.1628 5.79427 44.9648 8.08594C45.7956 10.349 46.2109 12.8555 46.2109 15.6055C46.2109 18.3555 45.7956 20.8763 44.9648 23.168C44.1628 25.431 42.931 27.25 41.2695 28.625C39.6367 29.9714 37.5885 30.6445 35.125 30.6445C32.6615 30.6445 30.599 29.9714 28.9375 28.625C27.3047 27.25 26.0729 25.431 25.2422 23.168C24.4401 20.8763 24.0391 18.3555 24.0391 15.6055C24.0391 12.8555 24.4401 10.349 25.2422 8.08594C26.0729 5.79427 27.3047 3.97526 28.9375 2.62891C30.599 1.25391 32.6615 0.566406 35.125 0.566406ZM35.125 5.76562C33.9792 5.76562 33.0195 6.20964 32.2461 7.09766C31.5013 7.95703 30.9427 9.13151 30.5703 10.6211C30.1979 12.082 30.0117 13.7435 30.0117 15.6055C30.0117 17.4674 30.1979 19.1432 30.5703 20.6328C30.9427 22.0938 31.5013 23.2539 32.2461 24.1133C33.0195 24.9727 33.9792 25.4023 35.125 25.4023C36.2708 25.4023 37.2161 24.9727 37.9609 24.1133C38.7344 23.2539 39.3073 22.0938 39.6797 20.6328C40.0807 19.1432 40.2812 17.4674 40.2812 15.6055C40.2812 13.7435 40.0807 12.082 39.6797 10.6211C39.3073 9.13151 38.7344 7.95703 37.9609 7.09766C37.2161 6.20964 36.2708 5.76562 35.125 5.76562ZM67.6094 13.9727V19.1289H61.8086V24.9727H56.6523V19.1289H50.8516V13.9727H56.6523V8.17188H61.8086V13.9727H67.6094Z" fill="#171100"/>
<path d="M84.7115 23.718C84.7115 22.494 84.9875 21.396 85.5395 20.424C86.0915 19.44 86.8415 18.672 87.7895 18.12C88.7495 17.568 89.8115 17.292 90.9755 17.292C92.3435 17.292 93.5375 17.622 94.5575 18.282C95.5775 18.942 96.3215 19.878 96.7895 21.09H94.8275C94.4795 20.334 93.9755 19.752 93.3155 19.344C92.6675 18.936 91.8875 18.732 90.9755 18.732C90.0995 18.732 89.3135 18.936 88.6175 19.344C87.9215 19.752 87.3755 20.334 86.9795 21.09C86.5835 21.834 86.3855 22.71 86.3855 23.718C86.3855 24.714 86.5835 25.59 86.9795 26.346C87.3755 27.09 87.9215 27.666 88.6175 28.074C89.3135 28.482 90.0995 28.686 90.9755 28.686C91.8875 28.686 92.6675 28.488 93.3155 28.092C93.9755 27.684 94.4795 27.102 94.8275 26.346H96.7895C96.3215 27.546 95.5775 28.476 94.5575 29.136C93.5375 29.784 92.3435 30.108 90.9755 30.108C89.8115 30.108 88.7495 29.838 87.7895 29.298C86.8415 28.746 86.0915 27.984 85.5395 27.012C84.9875 26.04 84.7115 24.942 84.7115 23.718ZM103.53 30.162C102.606 30.162 101.766 29.952 101.01 29.532C100.266 29.112 99.6778 28.518 99.2458 27.75C98.8258 26.97 98.6158 26.07 98.6158 25.05C98.6158 24.042 98.8318 23.154 99.2638 22.386C99.7078 21.606 100.308 21.012 101.064 20.604C101.82 20.184 102.666 19.974 103.602 19.974C104.538 19.974 105.384 20.184 106.14 20.604C106.896 21.012 107.49 21.6 107.922 22.368C108.366 23.136 108.588 24.03 108.588 25.05C108.588 26.07 108.36 26.97 107.904 27.75C107.46 28.518 106.854 29.112 106.086 29.532C105.318 29.952 104.466 30.162 103.53 30.162ZM103.53 28.722C104.118 28.722 104.67 28.584 105.186 28.308C105.702 28.032 106.116 27.618 106.428 27.066C106.752 26.514 106.914 25.842 106.914 25.05C106.914 24.258 106.758 23.586 106.446 23.034C106.134 22.482 105.726 22.074 105.222 21.81C104.718 21.534 104.172 21.396 103.584 21.396C102.984 21.396 102.432 21.534 101.928 21.81C101.436 22.074 101.04 22.482 100.74 23.034C100.44 23.586 100.29 24.258 100.29 25.05C100.29 25.854 100.434 26.532 100.722 27.084C101.022 27.636 101.418 28.05 101.91 28.326C102.402 28.59 102.942 28.722 103.53 28.722ZM119.489 20.136V30H117.851V28.542C117.539 29.046 117.101 29.442 116.537 29.73C115.985 30.006 115.373 30.144 114.701 30.144C113.933 30.144 113.243 29.988 112.631 29.676C112.019 29.352 111.533 28.872 111.173 28.236C110.825 27.6 110.651 26.826 110.651 25.914V20.136H112.271V25.698C112.271 26.67 112.517 27.42 113.009 27.948C113.501 28.464 114.173 28.722 115.025 28.722C115.901 28.722 116.591 28.452 117.095 27.912C117.599 27.372 117.851 26.586 117.851 25.554V20.136H119.489ZM123.893 21.738C124.181 21.174 124.589 20.736 125.117 20.424C125.657 20.112 126.311 19.956 127.079 19.956V21.648H126.647C124.811 21.648 123.893 22.644 123.893 24.636V30H122.255V20.136H123.893V21.738ZM132.462 30.162C131.706 30.162 131.028 30.036 130.428 29.784C129.828 29.52 129.354 29.16 129.006 28.704C128.658 28.236 128.466 27.702 128.43 27.102H130.122C130.17 27.594 130.398 27.996 130.806 28.308C131.226 28.62 131.772 28.776 132.444 28.776C133.068 28.776 133.56 28.638 133.92 28.362C134.28 28.086 134.46 27.738 134.46 27.318C134.46 26.886 134.268 26.568 133.884 26.364C133.5 26.148 132.906 25.938 132.102 25.734C131.37 25.542 130.77 25.35 130.302 25.158C129.846 24.954 129.45 24.66 129.114 24.276C128.79 23.88 128.628 23.364 128.628 22.728C128.628 22.224 128.778 21.762 129.078 21.342C129.378 20.922 129.804 20.592 130.356 20.352C130.908 20.1 131.538 19.974 132.246 19.974C133.338 19.974 134.22 20.25 134.892 20.802C135.564 21.354 135.924 22.11 135.972 23.07H134.334C134.298 22.554 134.088 22.14 133.704 21.828C133.332 21.516 132.828 21.36 132.192 21.36C131.604 21.36 131.136 21.486 130.788 21.738C130.44 21.99 130.266 22.32 130.266 22.728C130.266 23.052 130.368 23.322 130.572 23.538C130.788 23.742 131.052 23.91 131.364 24.042C131.688 24.162 132.132 24.3 132.696 24.456C133.404 24.648 133.98 24.84 134.424 25.032C134.868 25.212 135.246 25.488 135.558 25.86C135.882 26.232 136.05 26.718 136.062 27.318C136.062 27.858 135.912 28.344 135.612 28.776C135.312 29.208 134.886 29.55 134.334 29.802C133.794 30.042 133.17 30.162 132.462 30.162ZM147.374 24.69C147.374 25.002 147.356 25.332 147.32 25.68H139.436C139.496 26.652 139.826 27.414 140.426 27.966C141.038 28.506 141.776 28.776 142.64 28.776C143.348 28.776 143.936 28.614 144.404 28.29C144.884 27.954 145.22 27.51 145.412 26.958H147.176C146.912 27.906 146.384 28.68 145.592 29.28C144.8 29.868 143.816 30.162 142.64 30.162C141.704 30.162 140.864 29.952 140.12 29.532C139.388 29.112 138.812 28.518 138.392 27.75C137.972 26.97 137.762 26.07 137.762 25.05C137.762 24.03 137.966 23.136 138.374 22.368C138.782 21.6 139.352 21.012 140.084 20.604C140.828 20.184 141.68 19.974 142.64 19.974C143.576 19.974 144.404 20.178 145.124 20.586C145.844 20.994 146.396 21.558 146.78 22.278C147.176 22.986 147.374 23.79 147.374 24.69ZM145.682 24.348C145.682 23.724 145.544 23.19 145.268 22.746C144.992 22.29 144.614 21.948 144.134 21.72C143.666 21.48 143.144 21.36 142.568 21.36C141.74 21.36 141.032 21.624 140.444 22.152C139.868 22.68 139.538 23.412 139.454 24.348H145.682ZM153.028 30.162C152.272 30.162 151.594 30.036 150.994 29.784C150.394 29.52 149.92 29.16 149.572 28.704C149.224 28.236 149.032 27.702 148.996 27.102H150.688C150.736 27.594 150.964 27.996 151.372 28.308C151.792 28.62 152.338 28.776 153.01 28.776C153.634 28.776 154.126 28.638 154.486 28.362C154.846 28.086 155.026 27.738 155.026 27.318C155.026 26.886 154.834 26.568 154.45 26.364C154.066 26.148 153.472 25.938 152.668 25.734C151.936 25.542 151.336 25.35 150.868 25.158C150.412 24.954 150.016 24.66 149.68 24.276C149.356 23.88 149.194 23.364 149.194 22.728C149.194 22.224 149.344 21.762 149.644 21.342C149.944 20.922 150.37 20.592 150.922 20.352C151.474 20.1 152.104 19.974 152.812 19.974C153.904 19.974 154.786 20.25 155.458 20.802C156.13 21.354 156.49 22.11 156.538 23.07H154.9C154.864 22.554 154.654 22.14 154.27 21.828C153.898 21.516 153.394 21.36 152.758 21.36C152.17 21.36 151.702 21.486 151.354 21.738C151.006 21.99 150.832 22.32 150.832 22.728C150.832 23.052 150.934 23.322 151.138 23.538C151.354 23.742 151.618 23.91 151.93 24.042C152.254 24.162 152.698 24.3 153.262 24.456C153.97 24.648 154.546 24.84 154.99 25.032C155.434 25.212 155.812 25.488 156.124 25.86C156.448 26.232 156.616 26.718 156.628 27.318C156.628 27.858 156.478 28.344 156.178 28.776C155.878 29.208 155.452 29.55 154.9 29.802C154.36 30.042 153.736 30.162 153.028 30.162Z" fill="#5F5B53"/>
</svg>
